<svg width="46" height="46" viewBox="0 0 46 46" fill="none" xmlns="http://www.w3.org/2000/svg">
<path d="M17.8807 23.9307C17.8807 27.0041 17.8807 29.7082 17.8807 32.4124C17.8807 34.7104 16.9234 35.9933 15.1976 36.0256C13.4441 36.0579 12.3994 34.6966 12.3948 32.3432C12.3902 23.9307 12.3948 15.6383 12.3948 7.20743C-4.45876 19.1039 6.25994 44.7749 26.487 41.6047C28.9354 41.4985 29.4784 45.2548 26.9518 45.6009C22.4876 46.4131 18.1108 46.0162 13.9918 44.1288C5.31648 40.1511 0.36903 33.3122 0.019257 23.7554C-0.335118 14.014 4.21193 6.7875 12.7998 2.2052C15.8235 0.590094 17.8761 1.90064 17.8761 5.31083C17.8761 10.7561 17.8761 16.1967 17.8761 21.988C21.4613 18.4348 24.7197 14.8261 28.2404 11.236C28.6776 10.7884 29.2115 10.35 29.7868 10.1377C32.4837 9.21478 34.5962 12.5881 32.5113 14.6554C29.7914 17.5164 27.1267 20.1698 24.3929 23.0494C28.6822 27.1056 32.9485 31.1341 37.2839 35.2319C47.1006 24.0692 40.2432 6.06301 25.3594 4.08335C23.8268 3.79263 23.1871 3.00814 23.3758 1.65145C23.5507 0.391666 24.4942 -0.189773 26.0727 0.0548007C34.1129 1.29151 40.0176 5.56925 43.6396 12.8326C48.2097 21.9972 45.9776 33.1692 38.3792 40.0219C36.5015 41.7154 35.0242 41.6646 33.2477 39.8327C28.2174 34.6366 23.1963 29.4313 17.8807 23.9307Z" fill="black"/>
</svg>
