<svg width="190" height="24" viewBox="0 0 190 24" fill="none" xmlns="http://www.w3.org/2000/svg">
<path d="M58.8649 14.0269C58.8649 11.788 58.8448 9.54712 58.8689 7.30823C59.0795 -2.37818 72.9811 -2.18033 73.0473 7.42936C73.0673 10.3547 73.0473 13.28 73.0553 16.2053C73.0553 16.5868 73.0553 16.9805 73.1395 17.3479C73.3782 18.3897 74.3087 19.0438 75.3756 18.965C76.3863 18.8923 77.1965 18.0929 77.3068 17.0491C77.3669 12.3311 77.3028 7.60702 77.3328 2.88696C77.2927 -0.395675 81.7368 -0.779255 82.2562 2.33784C82.3484 7.03568 82.2522 11.7396 82.2923 16.4395C82.553 21.8863 77.0982 25.603 72.1909 23.3055C69.6741 22.1972 68.3285 20.1238 68.158 17.3944C67.9635 14.2732 68.1199 11.142 68.0898 8.01684C68.0858 7.67364 68.0898 7.32842 68.0517 6.98925C67.9214 5.88898 67.0631 5.1198 65.9741 5.10567C64.8731 5.09154 63.9727 5.88494 63.8404 7.00136C63.7661 11.7396 63.8404 16.4839 63.8123 21.2241C63.8123 22.5202 63.1445 23.4812 62.0415 23.8102C60.4311 24.2928 58.889 23.146 58.8709 21.4078C58.8468 18.9469 58.8649 16.4859 58.8649 14.0229V14.0269Z" fill="white"/>
<path d="M90.304 12.0162C90.304 8.86877 90.304 5.7214 90.304 2.57604C90.304 0.918572 91.0941 0.113054 92.7225 0.111035C96.6311 0.111035 100.542 0.10296 104.45 0.115073C106.355 0.12113 107.607 1.88358 106.883 3.54105C106.438 4.56258 105.627 5.06931 104.506 5.06931C101.699 5.06527 98.8932 5.08143 96.0856 5.0572C95.5883 5.05316 95.4339 5.18439 95.4519 5.69112C95.49 6.77927 95.486 7.86945 95.4519 8.9576C95.4379 9.42799 95.5622 9.57133 96.0455 9.56729C98.5102 9.54307 100.977 9.54509 103.444 9.56124C104.942 9.57133 106.041 10.607 106.067 11.9859C106.095 13.3728 105.03 14.4973 103.622 14.5074C101.115 14.5256 98.6105 14.5316 96.1037 14.4993C95.5562 14.4933 95.4298 14.6568 95.4499 15.1777C95.49 16.2658 95.484 17.356 95.4499 18.4441C95.4359 18.8964 95.5642 19.0215 96.0174 19.0195C98.823 18.9993 101.631 19.0013 104.438 19.0135C107.805 19.0034 107.964 23.7476 104.693 23.9515C103.271 23.9838 101.847 23.9637 100.423 23.9637C97.8364 23.9637 95.2514 23.9677 92.6644 23.9637C91.0861 23.9616 90.304 23.1703 90.302 21.5814C90.3 18.3937 90.302 15.2079 90.302 12.0202L90.304 12.0162Z" fill="white"/>
<path d="M189.988 14.9717C189.988 17.0895 190.016 19.2073 189.98 21.325C189.873 24.8136 185.062 24.7167 185.02 21.2867C185.008 19.8149 185.002 18.3412 185.026 16.8694C185.032 16.4515 184.918 16.3163 184.491 16.3203C182.866 16.3425 181.244 16.3466 179.62 16.3223C178.136 16.3022 177.113 15.2604 177.149 13.8594C177.183 12.5511 178.212 11.5599 179.592 11.5458C181.216 11.5296 182.838 11.5236 184.463 11.5518C184.918 11.5599 185.052 11.4287 185.024 10.9785C184.968 10.0559 185.088 9.12517 184.882 8.2066C184.386 6.01817 182.6 4.74428 180.183 4.86743C178.105 4.97241 176.455 6.53096 176.212 8.64065C176.01 12.8257 176.192 17.031 176.126 21.2221C176.122 22.8896 174.999 24.004 173.443 23.8849C172.216 23.79 171.209 22.6373 171.199 21.3977C171.167 17.0188 170.952 12.6279 171.291 8.2611C171.62 4.04374 174.905 0.781292 179.08 0.169583C185.084 -0.76716 190.222 3.87012 189.992 9.82369C189.984 11.5377 189.992 13.2517 189.992 14.9677H189.99L189.988 14.9717Z" fill="white"/>
<path d="M120.181 10.9482C120.415 10.8795 120.528 10.6777 120.672 10.5263C123.726 7.32639 126.781 4.1245 129.827 0.916562C131.036 -0.500666 133.489 -0.201877 134.106 1.62518C134.782 3.44415 133.429 4.39099 132.312 5.56192C130.364 7.56865 128.427 9.58143 126.46 11.568C126.113 11.9172 126.157 12.0989 126.474 12.4219C128.826 14.8183 131.167 17.2268 133.495 19.6474C134.895 21.103 134.313 23.3944 132.422 23.8769C131.405 24.1373 130.541 23.8264 129.811 23.0552C126.618 19.6918 123.436 16.3324 120.225 12.9872C120.036 13.1891 120.113 13.4193 120.113 13.6211C120.107 16.1225 120.107 18.6238 120.109 21.1252C120.109 21.8055 119.998 22.4495 119.565 23.0027C118.121 24.8621 115.095 23.8486 115.097 21.4623C115.083 15.1696 115.091 8.87686 115.097 2.58211C115.081 -0.290706 119.024 -0.960962 119.96 1.72612C120.089 2.11374 120.109 2.51549 120.109 2.92127C120.109 5.38224 120.107 7.84321 120.111 10.3042C120.111 10.5141 120.05 10.7382 120.179 10.9522L120.181 10.9482Z" fill="white"/>
<path d="M4.8568 10.7524C8.43649 7.81698 11.4546 4.29006 14.6613 0.960987C16.8994 -1.48181 20.5934 1.53838 18.4656 4.18508C16.1273 6.67431 13.7188 9.105 11.3283 11.5458C10.9553 11.9193 11.0195 12.105 11.3524 12.4442C13.6907 14.8244 16.011 17.2248 18.3333 19.6232C19.0753 20.3883 19.2818 21.3008 18.9208 22.2981C18.5719 23.2591 17.8299 23.7759 16.8332 23.8849C15.9288 23.9839 15.2168 23.5922 14.5972 22.9401C11.4386 19.5949 8.256 16.2921 5.09946 12.9428C4.92298 13.1669 4.98916 13.389 4.98916 13.5909C4.98314 16.173 4.99518 18.753 4.98114 21.3351C4.97512 22.4213 4.48179 23.2389 3.4871 23.6851C2.5626 24.0989 1.68221 23.9516 0.898093 23.3116C0.148064 22.7382 -0.0284137 21.8217 0.00367308 20.9193C-0.000337769 14.9697 -0.000337769 9.02021 0.00166766 3.07068C0.00166766 2.64672 -0.00434862 2.22276 0.123999 1.81294C0.497008 0.627878 1.66617 -0.092849 2.8975 0.0949033C4.08672 0.278618 4.97512 1.32034 4.98314 2.6124C4.99919 5.39235 4.98715 8.17431 4.98916 10.9543C4.94504 10.8856 4.90293 10.819 4.85881 10.7504L4.8568 10.7524Z" fill="white"/>
<path d="M152.723 0.111057C155.348 0.111057 157.975 0.107019 160.6 0.111057C162.708 0.0161715 163.985 2.51348 162.567 4.13259C162.058 4.7443 161.38 4.9906 160.596 4.98858C159.032 4.98252 157.47 5.01281 155.905 4.97445C155.356 4.96032 155.252 5.14201 155.254 5.65682C155.272 10.8392 155.268 16.0236 155.264 21.2059C155.264 22.8008 154.213 23.9374 152.757 23.9475C151.365 23.9576 150.242 22.9098 150.218 21.5068C150.186 19.7524 150.206 17.998 150.206 16.2436C150.206 12.6945 150.198 9.14538 150.216 5.59423C150.218 5.12182 150.09 4.97041 149.612 4.97647C147.99 5.00271 146.366 5.00271 144.741 4.97849C142.387 4.98656 141.416 2.00675 143.269 0.607692C143.771 0.226131 144.346 0.105001 144.966 0.107019C147.551 0.113076 150.138 0.109038 152.723 0.109038V0.111057Z" fill="white"/>
<path d="M38.8989 5.13339e-06C32.285 -0.00605139 26.9586 5.34792 26.9706 11.9859C27.496 27.8742 50.3278 27.8257 50.8372 11.9818C50.8312 5.33379 45.5208 0.00606166 38.8989 5.13339e-06ZM38.8908 19.1851C34.9823 19.175 31.938 16.0175 31.94 11.9778C32.1847 2.42867 45.6411 2.48116 45.8778 11.998C45.8717 16.0155 42.7814 19.1952 38.8908 19.1851Z" fill="white"/>
</svg>
